<svg xmlns="http://www.w3.org/2000/svg" viewBox="0 0 200 200" width="200" height="200">
  <defs>
    <linearGradient id="logoGrad" x1="0%" y1="0%" x2="100%" y2="100%">
      <stop offset="0%" style="stop-color:#00d4ff"/>
      <stop offset="100%" style="stop-color:#8b5cf6"/>
    </linearGradient>
  </defs>
  <rect x="0" y="0" width="200" height="200" rx="40" fill="#0a0f1a"/>
  <g stroke="url(#logoGrad)" stroke-width="3" opacity="0.6">
    <line x1="50" y1="50" x2="100" y2="70"/>
    <line x1="50" y1="50" x2="100" y2="100"/>
    <line x1="50" y1="50" x2="100" y2="130"/>
    <line x1="50" y1="100" x2="100" y2="70"/>
    <line x1="50" y1="100" x2="100" y2="100"/>
    <line x1="50" y1="100" x2="100" y2="130"/>
    <line x1="50" y1="150" x2="100" y2="70"/>
    <line x1="50" y1="150" x2="100" y2="100"/>
    <line x1="50" y1="150" x2="100" y2="130"/>
    <line x1="100" y1="70" x2="150" y2="100"/>
    <line x1="100" y1="100" x2="150" y2="100"/>
    <line x1="100" y1="130" x2="150" y2="100"/>
  </g>
  <circle cx="50" cy="50" r="12" fill="url(#logoGrad)"/>
  <circle cx="50" cy="100" r="12" fill="url(#logoGrad)"/>
  <circle cx="50" cy="150" r="12" fill="url(#logoGrad)"/>
  <circle cx="100" cy="70" r="10" fill="url(#logoGrad)"/>
  <circle cx="100" cy="100" r="10" fill="url(#logoGrad)"/>
  <circle cx="100" cy="130" r="10" fill="url(#logoGrad)"/>
  <circle cx="150" cy="100" r="14" fill="url(#logoGrad)"/>
</svg>
